<?xml version="1.0" encoding="iso-8859-1"?>
<!-- Generator: Adobe Illustrator 16.0.0, SVG Export Plug-In . SVG Version: 6.00 Build 0)  -->
<!DOCTYPE svg PUBLIC "-//W3C//DTD SVG 1.1//EN" "http://www.w3.org/Graphics/SVG/1.1/DTD/svg11.dtd">
<svg version="1.1" id="Capa_1" xmlns="http://www.w3.org/2000/svg" xmlns:xlink="http://www.w3.org/1999/xlink" x="0px" y="0px"
	 width="952.021px" height="952.02px" viewBox="0 0 952.021 952.02" style="enable-background:new 0 0 952.021 952.02;"
	 xml:space="preserve">
<g>
	<path d="M929.561,231.135c-14.5-35.7-35.301-67.7-61.7-95.2c-26.4-27.5-57.2-49.1-91.5-64.2c-35.5-15.7-73.2-23.6-112.101-23.6
		c-69.199,0-135.899,25.8-188.1,72.8c-52.3-47-118.9-72.8-188.1-72.8c-38.9,0-76.601,7.9-112.101,23.6
		c-34.3,15.1-65.1,36.7-91.5,64.2c-26.4,27.5-47.2,59.5-61.7,95.2c-15,36.8-22.6,75.8-22.7,115.9c-0.1,1.9-0.1,6,0.2,11.9
		c1.6,46.101,13,90,33.8,130.4c28.3,65.2,72.1,129.2,130.1,190.399c74.9,79,173.4,152.7,292.6,219l0.301,0.2
		c11.8,6.601,26.199,6.601,38,0l0.3-0.2c41-22.8,79.6-46.5,115.5-70.899v-39.9h-65.2c-44.1,0-80-35.899-80-80v-33.399
		c0-44.101,35.9-80,80-80h65.2v-65.2c0-44.101,35.899-80,80-80h33.399c44.101,0,80,35.899,80,80v65.2h53.9
		c24.4-34.5,44.4-69.7,59.8-105.2c20.8-40.4,32.2-84.3,33.8-130.3c0.301-5.9,0.301-10,0.2-11.8
		C952.16,306.935,944.561,267.935,929.561,231.135z"/>
	<path d="M724.36,479.235h-33.4c-27.6,0-50,22.4-50,50v95.2h-95.2c-27.6,0-50,22.4-50,50v33.4c0,27.6,22.4,50,50,50h95.2v48.899
		v46.4c0,27.6,22.4,50,50,50h33.4c27.6,0,50-22.4,50-50v-95.2h95.2c27.6,0,50-22.399,50-50v-33.399c0-27.601-22.4-50-50-50h-33.7
		h-61.5v-95.2C774.36,501.635,751.96,479.235,724.36,479.235z"/>
</g>
<g>
</g>
<g>
</g>
<g>
</g>
<g>
</g>
<g>
</g>
<g>
</g>
<g>
</g>
<g>
</g>
<g>
</g>
<g>
</g>
<g>
</g>
<g>
</g>
<g>
</g>
<g>
</g>
<g>
</g>
</svg>
