<?xml version="1.0" encoding="iso-8859-1"?>
<!-- Generator: Adobe Illustrator 18.0.0, SVG Export Plug-In . SVG Version: 6.00 Build 0)  -->
<!DOCTYPE svg PUBLIC "-//W3C//DTD SVG 1.1//EN" "http://www.w3.org/Graphics/SVG/1.1/DTD/svg11.dtd">
<svg version="1.1" id="Capa_1" xmlns="http://www.w3.org/2000/svg" xmlns:xlink="http://www.w3.org/1999/xlink" x="0px" y="0px"
	 viewBox="0 0 343.051 343.051" style="enable-background:new 0 0 343.051 343.051;" xml:space="preserve">
<g>
	<g>
		<rect x="73.992" y="42.836" width="34.139" height="65.242"/>
	</g>
	<path d="M265.404,0H10.035v343.051h322.98V67.604L265.404,0z M171.533,294.395c-33.93,0-61.443-27.5-61.443-61.434
		c0-33.934,27.514-61.436,61.443-61.436s61.438,27.502,61.438,61.436C232.971,266.895,205.463,294.395,171.533,294.395z
		 M251.637,122.219H51.904V28.693h199.732V122.219z"/>
	<g>
		<path d="M209.578,232.961c0,21.008-17.035,38.047-38.045,38.047c-21.033,0-38.072-17.039-38.072-38.047
			c0-21.029,17.039-38.074,38.072-38.074C192.543,194.887,209.578,211.932,209.578,232.961z"/>
	</g>
</g>
<g>
</g>
<g>
</g>
<g>
</g>
<g>
</g>
<g>
</g>
<g>
</g>
<g>
</g>
<g>
</g>
<g>
</g>
<g>
</g>
<g>
</g>
<g>
</g>
<g>
</g>
<g>
</g>
<g>
</g>
</svg>
