<?xml version="1.0" encoding="iso-8859-1"?>
<!-- Generator: Adobe Illustrator 18.0.0, SVG Export Plug-In . SVG Version: 6.00 Build 0)  -->
<!DOCTYPE svg PUBLIC "-//W3C//DTD SVG 1.1//EN" "http://www.w3.org/Graphics/SVG/1.1/DTD/svg11.dtd">
<svg version="1.1" id="Capa_1" xmlns="http://www.w3.org/2000/svg" xmlns:xlink="http://www.w3.org/1999/xlink" x="0px" y="0px"
	 viewBox="0 0 435.059 435.059" style="enable-background:new 0 0 435.059 435.059;" xml:space="preserve">
<g>
	<path d="M357.528,127.939c-0.01-2.658-0.036-9.717-39.376-16.249c-10.379-1.724-22.169-3.139-34.946-4.23v15.89
		c7.424,0.642,14.489,1.393,21.056,2.25c5.554,0.726,10.692,1.514,15.351,2.356c-4.669,0.846-9.803,1.636-15.351,2.358
		c-24.209,3.164-55.012,4.907-86.733,4.907c-31.721,0-62.524-1.743-86.733-4.907c-5.547-0.723-10.682-1.513-15.35-2.358
		c4.659-0.843,9.797-1.631,15.35-2.356c4.329-0.566,8.876-1.085,13.593-1.558c-0.868-3.264-1.333-6.872-1.333-10.785
		c0-1.732,0.116-3.392,0.299-5.01c-9.527,0.961-18.412,2.11-26.448,3.443c-39.34,6.532-39.366,13.589-39.377,16.261v87.811
		c0,1.825,1.478,3.303,3.3,3.303h4.713l94.31,131.208v81.484c0,1.823,1.478,3.302,3.304,3.302h68.746
		c1.826,0,3.304-1.478,3.304-3.302v-81.478l83.28-114.732c0.76-1.047,0.838-2.433,0.206-3.557c-0.632-1.128-1.851-1.791-3.147-1.675
		c-7.777,0.638-16.133,0.957-24.838,0.957c-29.919,0-59.267-3.838-76.728-6.645c9.858,0.137,23.178,0.273,37.249,0.273
		c34.996,0,78.103-0.847,84.716-4.867c0.985-0.602,1.586-1.669,1.586-2.823L357.528,127.939z"/>
	<path d="M219.501,40.291c-0.061,0.08-0.126,0.155-0.189,0.233l0.189-0.075V40.291z"/>
	<path d="M284.116,40.291c-0.061,0.08-0.126,0.155-0.188,0.233l0.188-0.075V40.291z"/>
	<polygon points="100.888,7.629 101.04,7.629 101.04,38.319 110.899,38.319 110.899,0.466 102.177,0.466 90.878,4.95 92.546,10.948 
			"/>
	<path d="M135.926,38.785c7.963,0,14.409-5.998,14.409-19.568c0-9.026-2.654-19.217-14.029-19.217
		c-10.238,0-14.789,8.677-14.789,19.566C121.517,29.293,125.158,38.785,135.926,38.785z M131.528,19.393
		c-0.076-8.794,1.516-12.871,4.625-12.871c3.185,0,4.171,4.776,4.171,12.871c0,8.677-1.062,12.871-4.171,12.871
		C132.817,32.264,131.375,28.245,131.528,19.393z"/>
	<path d="M168.233,38.785c7.963,0,14.409-5.998,14.409-19.568c0-9.026-2.654-19.217-14.029-19.217
		c-10.238,0-14.789,8.677-14.789,19.566C153.824,29.293,157.465,38.785,168.233,38.785z M163.836,19.393
		c-0.076-8.794,1.517-12.871,4.625-12.871c3.185,0,4.171,4.776,4.171,12.871c0,8.677-1.062,12.871-4.171,12.871
		C165.125,32.264,163.684,28.245,163.836,19.393z"/>
	<path d="M200.541,38.785c7.963,0,14.409-5.998,14.409-19.568C214.95,10.191,212.296,0,200.921,0
		c-10.238,0-14.788,8.677-14.788,19.566C186.133,29.293,189.773,38.785,200.541,38.785z M196.143,19.393
		c-0.076-8.794,1.517-12.871,4.626-12.871c3.185,0,4.171,4.776,4.171,12.871c0,8.677-1.062,12.871-4.171,12.871
		C197.432,32.264,195.991,28.245,196.143,19.393z"/>
	<polygon points="230.119,7.629 230.271,7.629 230.271,38.319 240.129,38.319 240.129,0.466 231.408,0.466 220.109,4.95 
		221.777,10.948 	"/>
	<path d="M265.157,38.785c7.962,0,14.408-5.998,14.408-19.568c0-9.026-2.654-19.217-14.029-19.217
		c-10.238,0-14.788,8.677-14.788,19.566C250.748,29.293,254.388,38.785,265.157,38.785z M260.758,19.393
		c-0.076-8.794,1.517-12.871,4.625-12.871c3.185,0,4.171,4.776,4.171,12.871c0,8.677-1.061,12.871-4.171,12.871
		C262.047,32.264,260.607,28.245,260.758,19.393z"/>
	<polygon points="294.734,7.629 294.886,7.629 294.886,38.319 304.745,38.319 304.745,0.466 296.023,0.466 284.724,4.95 
		286.393,10.948 	"/>
	<path d="M329.773,38.785c7.962,0,14.409-5.998,14.409-19.568c0-9.026-2.654-19.217-14.03-19.217
		c-10.237,0-14.788,8.677-14.788,19.566C315.363,29.293,319.004,38.785,329.773,38.785z M325.374,19.393
		c-0.076-8.794,1.517-12.871,4.625-12.871c3.185,0,4.171,4.776,4.171,12.871c0,8.677-1.061,12.871-4.171,12.871
		C326.663,32.264,325.222,28.245,325.374,19.393z"/>
	<path d="M135.926,85.63c7.963,0,14.409-5.998,14.409-19.566c0-9.026-2.654-19.219-14.029-19.219
		c-10.238,0-14.789,8.677-14.789,19.566C121.517,76.138,125.158,85.63,135.926,85.63z M131.528,66.237
		c-0.076-8.795,1.516-12.871,4.625-12.871c3.185,0,4.171,4.776,4.171,12.871c0,8.677-1.062,12.871-4.171,12.871
		C132.817,79.108,131.375,75.09,131.528,66.237z"/>
	<polygon points="175.514,85.164 175.514,47.311 166.793,47.311 155.493,51.795 157.161,57.793 165.504,54.474 165.655,54.474 
		165.655,85.164 	"/>
	<path d="M200.541,85.63c7.963,0,14.409-5.998,14.409-19.566c0-9.026-2.654-19.219-14.029-19.219
		c-10.238,0-14.788,8.677-14.788,19.566C186.133,76.138,189.773,85.63,200.541,85.63z M196.143,66.237
		c-0.076-8.795,1.517-12.871,4.626-12.871c3.185,0,4.171,4.776,4.171,12.871c0,8.677-1.062,12.871-4.171,12.871
		C197.432,79.108,195.991,75.09,196.143,66.237z"/>
	<polygon points="230.119,54.474 230.271,54.474 230.271,85.164 240.129,85.164 240.129,47.311 231.408,47.311 220.109,51.795 
		221.777,57.793 	"/>
	<path d="M265.157,85.63c7.962,0,14.408-5.998,14.408-19.566c0-9.026-2.654-19.219-14.029-19.219
		c-10.238,0-14.788,8.677-14.788,19.566C250.748,76.138,254.388,85.63,265.157,85.63z M260.758,66.237
		c-0.076-8.795,1.517-12.871,4.625-12.871c3.185,0,4.171,4.776,4.171,12.871c0,8.677-1.061,12.871-4.171,12.871
		C262.047,79.108,260.607,75.09,260.758,66.237z"/>
	<polygon points="294.734,54.474 294.886,54.474 294.886,85.164 304.745,85.164 304.745,47.311 296.023,47.311 284.724,51.795 
		286.393,57.793 	"/>
	<path d="M168.233,132.474c7.963,0,14.409-5.998,14.409-19.566c0-9.026-2.654-19.219-14.029-19.219
		c-10.238,0-14.789,8.677-14.789,19.568C153.824,122.981,157.465,132.474,168.233,132.474z M163.836,113.081
		c-0.076-8.793,1.517-12.871,4.625-12.871c3.185,0,4.171,4.776,4.171,12.871c0,8.679-1.062,12.871-4.171,12.871
		C165.125,125.952,163.684,121.934,163.836,113.081z"/>
	<polygon points="207.822,132.008 207.822,94.154 199.1,94.154 187.801,98.639 189.47,104.637 197.812,101.317 197.963,101.317 
		197.963,132.008 	"/>
	<path d="M232.849,132.474c7.963,0,14.409-5.998,14.409-19.566c0-9.026-2.654-19.219-14.029-19.219
		c-10.238,0-14.788,8.677-14.788,19.568C218.441,122.981,222.081,132.474,232.849,132.474z M228.451,113.081
		c-0.076-8.793,1.517-12.871,4.626-12.871c3.185,0,4.171,4.776,4.171,12.871c0,8.679-1.061,12.871-4.171,12.871
		C229.74,125.952,228.299,121.934,228.451,113.081z"/>
	<polygon points="272.437,132.008 272.437,94.154 263.715,94.154 252.417,98.639 254.085,104.637 262.427,101.317 262.578,101.317 
		262.578,132.008 	"/>
</g>
<g>
</g>
<g>
</g>
<g>
</g>
<g>
</g>
<g>
</g>
<g>
</g>
<g>
</g>
<g>
</g>
<g>
</g>
<g>
</g>
<g>
</g>
<g>
</g>
<g>
</g>
<g>
</g>
<g>
</g>
</svg>
