<svg height="512pt" viewBox="0 0 512 512" width="512pt" xmlns="http://www.w3.org/2000/svg"><path d="m0 0h138.5v138.5h-138.5zm0 0"/><path d="m373.5 0h138.5v138.5h-138.5zm0 0"/><path d="m186.75 0h138.5v138.5h-138.5zm0 0"/><path d="m0 186.75h138.5v138.5h-138.5zm0 0"/><path d="m373.5 186.75h138.5v138.5h-138.5zm0 0"/><path d="m186.75 186.75h138.5v138.5h-138.5zm0 0"/><path d="m0 373.5h138.5v138.5h-138.5zm0 0"/><path d="m373.5 373.5h138.5v138.5h-138.5zm0 0"/><path d="m186.75 373.5h138.5v138.5h-138.5zm0 0"/></svg>