<?xml version="1.0" encoding="iso-8859-1"?>
<!-- Generator: Adobe Illustrator 16.0.0, SVG Export Plug-In . SVG Version: 6.00 Build 0)  -->
<!DOCTYPE svg PUBLIC "-//W3C//DTD SVG 1.1//EN" "http://www.w3.org/Graphics/SVG/1.1/DTD/svg11.dtd">
<svg version="1.1" id="Capa_1" xmlns="http://www.w3.org/2000/svg" xmlns:xlink="http://www.w3.org/1999/xlink" x="0px" y="0px"
	 width="98.83px" height="98.83px" viewBox="0 0 98.83 98.83" style="enable-background:new 0 0 98.83 98.83;" xml:space="preserve"
	>
<g>
	<g>
		<path d="M61.89,72.516h-3.966V46.103c0-1.994-1.609-3.604-3.598-3.604h-9.819c-1.986,0-3.598,1.611-3.598,3.604v26.413h-3.972
			c-0.908,0-1.736,0.533-2.118,1.354c-0.388,0.827-0.249,1.802,0.335,2.498l10.629,12.495c0.908,1.066,2.236,1.68,3.631,1.68
			c1.4,0,2.73-0.613,3.636-1.68l10.622-12.495c0.592-0.696,0.725-1.671,0.342-2.498C63.633,73.049,62.804,72.516,61.89,72.516z"/>
		<path d="M79.043,23.417c-0.701-0.058-1.344-0.417-1.762-0.982c-4.026-5.453-10.496-8.818-17.377-8.818
			c-0.438,0-0.877,0.013-1.316,0.04c-0.582,0.036-1.154-0.138-1.618-0.489c-4.188-3.165-9.264-4.88-14.581-4.88
			c-9.521,0-17.971,5.522-21.91,13.882c-0.352,0.746-1.057,1.264-1.873,1.377C8.109,25.005,0,34.04,0,44.931
			C0,56.834,9.685,66.52,21.59,66.52h15.319v-8.506H21.59c-7.214,0-13.083-5.869-13.083-13.083c0-7.215,5.869-13.083,13.083-13.083
			c0.364,0,0.723,0.029,1.08,0.058c2.079,0.16,3.961-1.188,4.467-3.204c1.759-7.011,8.032-11.908,15.252-11.908
			c4.125,0,8.029,1.593,10.993,4.485c1.015,0.989,2.452,1.408,3.838,1.12c0.883-0.183,1.786-0.276,2.685-0.276
			c5.051,0,9.562,2.839,11.771,7.41c0.775,1.607,2.475,2.565,4.252,2.382c0.441-0.044,0.884-0.066,1.312-0.066
			c7.215,0,13.084,5.869,13.084,13.083c0,7.213-5.869,13.083-13.084,13.083H61.924v8.506H77.24c11.904,0,21.59-9.686,21.59-21.587
			C98.83,33.634,90.107,24.335,79.043,23.417z"/>
	</g>
</g>
<g>
</g>
<g>
</g>
<g>
</g>
<g>
</g>
<g>
</g>
<g>
</g>
<g>
</g>
<g>
</g>
<g>
</g>
<g>
</g>
<g>
</g>
<g>
</g>
<g>
</g>
<g>
</g>
<g>
</g>
</svg>
