<?xml version="1.0" encoding="iso-8859-1"?>
<!-- Generator: Adobe Illustrator 18.1.1, SVG Export Plug-In . SVG Version: 6.00 Build 0)  -->
<svg version="1.1" id="Capa_1" xmlns="http://www.w3.org/2000/svg" xmlns:xlink="http://www.w3.org/1999/xlink" x="0px" y="0px"
	 viewBox="0 0 30 30" style="enable-background:new 0 0 30 30;" xml:space="preserve">
<g>
	<g>
		<path style="fill:#010002;" d="M21,12c-1.055,0-2.061,0.19-3,0.522V10h-8v2H6V8h2V0H0v8h4v15.999h6V28h5.35
			c1.545,1.248,3.51,1.999,5.65,2c4.971-0.002,8.998-4.029,9-9C29.998,16.027,25.971,12,21,12z M12.059,20H10v2H6.001L6,13.998h4V18
			h2.522C12.297,18.639,12.135,19.307,12.059,20z M21,27.883c-3.801-0.009-6.876-3.084-6.885-6.883
			c0.009-3.801,3.084-6.876,6.885-6.885c3.799,0.009,6.874,3.084,6.883,6.885C27.874,24.799,24.799,27.874,21,27.883z"/>
		<polygon style="fill:#010002;" points="22.002,20 22.002,16 20,16 20,20 16,20 16,22 20,22 20,26 22.002,26 22.002,22 26,22 
			26,20 		"/>
	</g>
</g>
<g>
</g>
<g>
</g>
<g>
</g>
<g>
</g>
<g>
</g>
<g>
</g>
<g>
</g>
<g>
</g>
<g>
</g>
<g>
</g>
<g>
</g>
<g>
</g>
<g>
</g>
<g>
</g>
<g>
</g>
</svg>
